<svg xmlns="http://www.w3.org/2000/svg" width="120px" height="auto" viewBox="0 0 68.31 87.98"><defs><style>.cls-1{fill:#4c4b4b;}.cls-2{fill:#008a8c;}.cls-3{fill:#e197c0;}</style></defs><title>Asset 2</title><g id="Layer_2" data-name="Layer 2"><g id="Layer_1-2" data-name="Layer 1"><path class="cls-1" d="M23.54,60.53l1.49.17a.31.31,0,0,0,.36-.21q2.07-4.19,4.16-8.37c.12-.24,0-.28-.17-.3L28,51.66a.33.33,0,0,0-.4.24c-.48,1.11-1,2.22-1.55,3.33l-1.42,3-.38-1.71q-.56-2.55-1.09-5.12c0-.23-.14-.36-.4-.38-.48,0-1-.11-1.42-.17-.21,0-.26,0-.2.25q1.06,4.56,2.1,9.13A.31.31,0,0,0,23.54,60.53Z"/><path class="cls-1" d="M68.14,45.53a3.45,3.45,0,0,1-1.2-.82c-.8-.77-1.51-1.63-2.35-2.36a1.72,1.72,0,0,0-2.34-.19,5.83,5.83,0,0,0-1.49,1.38,2.21,2.21,0,0,0-.59,1.5,2.37,2.37,0,0,0,.24,1.09c.06.14.13.21.29.1.33-.24.67-.46,1-.68a.22.22,0,0,0,.11-.27,1.45,1.45,0,0,1,.91-1.73.83.83,0,0,1,1,.29c.24.25,0,.41-.11.59a2.42,2.42,0,0,1-.24.4,11.8,11.8,0,0,0-1.15,1.93,1.93,1.93,0,0,0,2,2.56,2.77,2.77,0,0,0,2.25-2.42c0-.4,0-.41.38-.2a.41.41,0,0,0,.58,0l.05-.07a8.89,8.89,0,0,1,.74-.79C68.34,45.7,68.39,45.61,68.14,45.53ZM64.65,47.6a.85.85,0,0,1-.94-.25.75.75,0,0,1-.1-.89c.25-.54.63-1,.91-1.53,0-.07.09-.14.16-.06.38.41.88.75.88,1.4A1.41,1.41,0,0,1,64.65,47.6Z"/><path class="cls-1" d="M6.88,52.55c-.16,1.93,1.83,3.54,3.53,3.51A3.62,3.62,0,0,0,14,52.45a3.55,3.55,0,0,0-3.6-3.5A3.68,3.68,0,0,0,6.88,52.55Zm1.74.21a3,3,0,0,1,1-1.83,1.53,1.53,0,0,1,1.72-.3,1.45,1.45,0,0,1,.94,1.5,2.82,2.82,0,0,1-1.15,2.13,1.24,1.24,0,0,1-.82.28,1.6,1.6,0,0,1-1.66-1.79Z"/><path class="cls-1" d="M41.87,57.33c1.28-.25,2.56-.52,3.84-.76.2,0,.22-.11.18-.28a6.2,6.2,0,0,0-.52-1.51,2.78,2.78,0,0,0-2.63-1.65,2.94,2.94,0,0,0-2.9,1.78A4.2,4.2,0,0,0,40,58.29a2.79,2.79,0,0,0,2.69,1.89,6.77,6.77,0,0,0,1-.1A2.84,2.84,0,0,0,46,57.79c0-.18,0-.23-.18-.22l-1.39.07c-.17,0-.17.1-.19.23a1.09,1.09,0,0,1-.89.94,1.48,1.48,0,0,1-1.71-1.05C41.54,57.46,41.61,57.38,41.87,57.33Zm-.32-1c-.34.06-.18-.27-.24-.4a1.36,1.36,0,0,1,1.19-1.45A1.41,1.41,0,0,1,44,55.57c0,.15,0,.24-.15.28C43.05,56,42.3,56.18,41.55,56.31Z"/><path class="cls-1" d="M18.66,55.18c-.33,1.24-.75,2.45-1.15,3.67-.08.25,0,.35.21.42s.77.23,1.16.36c.16.05.23,0,.3-.15.45-1.45.92-2.9,1.37-4.38a1.87,1.87,0,0,0-.27-1.83,2.65,2.65,0,0,0-2-1,3,3,0,0,0-1.72.55c.1-.32.15-.56.25-.78s0-.18-.11-.22a11.61,11.61,0,0,1-1.12-.36c-.24-.1-.3,0-.37.2q-.93,3-1.88,5.91c-.06.19,0,.26.15.3.4.12.8.23,1.19.38.2.07.28.05.35-.17.27-.89.55-1.77.85-2.65A5.09,5.09,0,0,1,16.48,54a1.37,1.37,0,0,1,1.7-.41c.51.23.68.65.54,1.35A2,2,0,0,1,18.66,55.18Z"/><path class="cls-1" d="M49.72,52.45a1.28,1.28,0,0,1,.76.85l1.45,3.64c.1.27.2.3.45.19a10.12,10.12,0,0,1,1.09-.43c.18-.06.21-.15.15-.32-.57-1.45-1.11-2.9-1.72-4.31a1.92,1.92,0,0,0-2.58-1.14,2.77,2.77,0,0,0-1.89,2,6.79,6.79,0,0,1-.29-.71c-.06-.23-.15-.21-.31-.14-.36.15-.73.3-1.1.43-.15.05-.19.11-.13.28q1.16,2.9,2.29,5.84c.08.2.15.22.33.15.38-.16.77-.31,1.16-.45.19-.07.23-.16.15-.34-.15-.37-.31-.75-.45-1.13a19.71,19.71,0,0,1-1-2.85,1.37,1.37,0,0,1,1.63-1.53Z"/><path class="cls-1" d="M54.75,49.76a1.12,1.12,0,0,1,1.58,0c.11.1.18.06.27,0l1-.92c.09-.08.15-.15,0-.25A2.9,2.9,0,0,0,56,48a3.39,3.39,0,0,0-2,.67,3,3,0,0,0-1.39,3.22,4.75,4.75,0,0,0,1.61,2.56,2.67,2.67,0,0,0,1.74.66,3.62,3.62,0,0,0,2.42-1A2.71,2.71,0,0,0,59.21,51c-.05-.18-.1-.26-.31-.16-.37.18-.76.34-1.15.48-.19.07-.24.15-.17.34a1.26,1.26,0,0,1,.06.84,1.38,1.38,0,0,1-2.27.54,4.05,4.05,0,0,1-1.13-1.72A1.3,1.3,0,0,1,54.75,49.76Z"/><path class="cls-1" d="M35.74,61.06c.35,0,.71-.1,1.06-.12s.3-.12.35-.31c.19-.7.41-1.39.61-2.08L39.1,54c-.53,0-1,.11-1.51.13a.33.33,0,0,0-.36.29h0q-.18.71-.37,1.41c-.27,1-.55,2-.79,3.11-.61-1.48-1.31-2.82-1.93-4.17a.39.39,0,0,0-.47-.27h0c-.41.06-.83.11-1.24.13s-.25.1-.15.29q1.55,3,3.08,6A.33.33,0,0,0,35.74,61.06Z"/><path class="cls-1" d="M31.55,54.45H30.29c-.19,0-.24.06-.25.24q0,3.1-.08,6.22c0,.22.07.26.26.26.41,0,.81,0,1.22,0s.32-.07.31-.32v-3h.07V54.76C31.85,54.52,31.78,54.44,31.55,54.45Z"/><path class="cls-1" d="M62.57,50.39l-3.39-4.8c-.06-.08-.1-.19-.23-.23l-.11.08c-.37.26-.74.53-1.11.78-.15.1-.15.17,0,.31l3.66,5.16c.1.14.15.14.28,0L62.7,51c.15-.1.19-.19.06-.34A2.42,2.42,0,0,1,62.57,50.39Z"/><path class="cls-1" d="M58.33,44.4l-.74-1c-.07-.1-.13-.12-.23,0l-1.17.83c-.12.08-.12.15,0,.26l.71,1,.13.15.12,0,1.19-.85C58.41,44.55,58.4,44.49,58.33,44.4Z"/><path class="cls-1" d="M31.72,51.87l-1.45,0c-.14,0-.18.05-.18.19v1.42l.13,0,1.45,0c.13,0,.15-.06.16-.17q0-.64,0-1.29C31.87,51.92,31.84,51.87,31.72,51.87Z"/><path class="cls-2" d="M57.29,77.41v.35c0,.25-.07.45-.37.44a.35.35,0,0,0-.28.14.56.56,0,0,0-.3.06.7.7,0,0,1-1-.2l0-.06c-.06-.07-.11-.13-.2-.13l0-.17a1.13,1.13,0,0,0,.94-1,11.12,11.12,0,0,0,.57-5.8,7.33,7.33,0,0,0-.48-1.41.88.88,0,0,0-1-.53,3.21,3.21,0,0,0-1.93.88,12.44,12.44,0,0,0-3.26,4.81,6.44,6.44,0,0,0-.25,1.11.74.74,0,0,0,.29.77.88.88,0,0,1,0,1.45,1.42,1.42,0,0,0-.41.53.38.38,0,0,1-.39.26c-.19,0-.24-.15-.28-.28s-.21-.28-.44-.26c-1.35.11-2.71.23-4.07.28a7.26,7.26,0,0,1-3.51-.69.48.48,0,0,1-.2-.14,9.1,9.1,0,0,1-1-1.66,3.22,3.22,0,0,1,.36-2.24,2.85,2.85,0,0,1,.88-1.12c.21-.16.28-.28,0-.45a3.79,3.79,0,0,1-1.19-.9,1.8,1.8,0,0,1,0-1.45.23.23,0,0,1,.12-.07c1.29-.29,2.42-1,3.68-1.36a2.78,2.78,0,0,1,2-.06l.19.09c.12.07.29.12.22.31a.31.31,0,0,1-.37.22,3.13,3.13,0,0,0-2,.45L41.09,70.6c-.09,0-.22.05-.23.15s.11.17.2.23A3.84,3.84,0,0,0,43,71.5a22.64,22.64,0,0,0,2.42-.12c.11,0,.3-.08.32,0s.24.43.23.67-.15.14-.25.17l-2.29.67a3.53,3.53,0,0,0-2.65,2.42,1.23,1.23,0,0,0,.63,1.51,8.34,8.34,0,0,0,2.39.52,25.35,25.35,0,0,0,4.35-.24c.32,0,.43-.18.43-.48,0-1.18,0-2.37,0-3.55a13.22,13.22,0,0,1,.38-3.79,1,1,0,0,1,.07-.24.31.31,0,0,1,.35-.24c.16,0,.19.15.25.27A2.86,2.86,0,0,1,49.52,71a3.56,3.56,0,0,0-.06,1.56c0,.11,0,.25.12.28s.2-.11.27-.2c.64-.85,1.29-1.69,2-2.5a6.51,6.51,0,0,1,2.9-2.08,3.52,3.52,0,0,1,1.2-.15c.31,0,.48.22.66.44a4.9,4.9,0,0,1,1,3.22,17.3,17.3,0,0,1-.4,4.84.61.61,0,0,0,0,.35A.78.78,0,0,0,57.29,77.41Z"/><path class="cls-2" d="M22.31,72.61a18.08,18.08,0,0,1-2.2,8.5,11.13,11.13,0,0,1-3.31,3.61,28.62,28.62,0,0,1-5,2.68l-.48.22a.58.58,0,0,1-.62.05.48.48,0,0,0-.45,0,3.14,3.14,0,0,1-2.53,0,12.26,12.26,0,0,1-2.82-1.45s-.05,0-.06,0A6.27,6.27,0,0,1,4,84.34a1.83,1.83,0,0,1,.67-1.41.42.42,0,0,1,.59-.05l.08.08A15.7,15.7,0,0,1,6.7,84.61a1.49,1.49,0,0,1,.31.89,2.42,2.42,0,0,0,.22,1,.45.45,0,0,0,.27.27,4.14,4.14,0,0,0,2,.25,11.25,11.25,0,0,0,5.69-2.39c1.11-.81,2.15-1.7,3.17-2.62a3.05,3.05,0,0,0,.54-.79,17.33,17.33,0,0,0,2.42-6.86,11.47,11.47,0,0,0-1.42-7.51,8.49,8.49,0,0,0-3.55-3.28.48.48,0,0,1-.32-.48c0-.39.14-.48.51-.36a7,7,0,0,1,3.35,2.64,11.9,11.9,0,0,1,2.19,4.81A13.06,13.06,0,0,1,22.31,72.61Z"/><path class="cls-2" d="M23.31,72.29a5,5,0,0,1,.79-2.9.65.65,0,0,1,.48-.31,1.72,1.72,0,0,0,1-.65,6.15,6.15,0,0,1,.85-.91,1,1,0,0,1,.65-.26,6.87,6.87,0,0,1,2.78.59,3.82,3.82,0,0,1,2,3A6.48,6.48,0,0,1,30,76.87a4.75,4.75,0,0,1-2.18,1.57A2.84,2.84,0,0,1,24.23,77,7.6,7.6,0,0,1,23.45,74,10.94,10.94,0,0,1,23.31,72.29Zm1,1.11a5.15,5.15,0,0,0,1.13,3.21,1.88,1.88,0,0,0,2.37.44,4.43,4.43,0,0,0,1-1,9.59,9.59,0,0,0,1.91-2.53c.57-1.34.74-2.67-.32-3.87a3.85,3.85,0,0,1-.23-.32,2.77,2.77,0,0,0-3.89-.44l-.11.09c-.11.1-.27.2-.25.37.07.64-.31,1-.8,1.27a1.09,1.09,0,0,0-.56.66A8.09,8.09,0,0,0,24.33,73.39Z"/><path class="cls-2" d="M35.83,76.28c.15-.54.3-1.07.44-1.61L37.48,70l.66-2.52a.31.31,0,0,0-.14-.4c-.15-.08-.24,0-.33.14s-.17.2-.27.29-.14.14-.25.07-.08-.17-.06-.26a1.67,1.67,0,0,1,.59-1,5.32,5.32,0,0,0,1.09-1,.2.2,0,0,1,.28-.08l.06,0c.13.26.31.54.16.83a12,12,0,0,0-.85,2.9,6.05,6.05,0,0,1-.37,1.3,9.48,9.48,0,0,0-.62,2.56c-.41,2.29-.72,4.59-1.22,6.86-.09.43-.23.48-.65.34-.21-.08-.4-.1-.45-.44-.26-1.8-.54-3.6-1-5.38a18.45,18.45,0,0,0-.9-2.44,8.91,8.91,0,0,1-.59-2.09c0-.26,0-.48.33-.48a.3.3,0,0,1,.31.22,42.17,42.17,0,0,1,1.9,4.92c.19.61.36,1.23.54,1.84Z"/><path class="cls-3" d="M55.12,78c.09,0,.14.06.2.13a.7.7,0,0,0,1,.29l.06,0a.56.56,0,0,1,.3-.06,9.45,9.45,0,0,1-1.45,1.89c-.11.09-.21.17-.35.1s-.27-.24-.24-.37A9.73,9.73,0,0,1,55.12,78Z"/><path class="cls-3" d="M57.29,77.41a.78.78,0,0,1-.13-.62c.52-.57,1-1.14,1.56-1.71l2-2.3.34-.43c.11.2,0,.25,0,.31C60.06,74,59,75.28,58,76.6A3,3,0,0,1,57.29,77.41Z"/><path class="cls-3" d="M56,76.82a1.13,1.13,0,0,1-.94,1c-.07-.24-.19-.12-.28,0l-1,1-1.69,1.68c-.07.07-.13.13-.25.07A2.33,2.33,0,0,1,51,80a.35.35,0,0,1,0-.48l.62-.74a.63.63,0,0,0,.22-.36.63.63,0,0,0-.4.13c-.87.6-1.7,1.25-2.54,1.89a32.53,32.53,0,0,1-3.1,2.25c-.57.33-1.13.66-1.72,1a.48.48,0,0,1-.4.1l1.58-1.23,4.3-3.3,3.31-2.52c.53-.4.73-.4,1.26,0a.24.24,0,0,0,.3,0A1.18,1.18,0,0,1,56,76.82Z"/><path class="cls-3" d="M62.27,0c-.24.89-.59,1.73-.89,2.6-.56,1.6-1.17,3.17-1.72,4.77a22.9,22.9,0,0,1-2.6,5.16A23.7,23.7,0,0,1,53,17.23a1,1,0,0,0-.38,1.15,35.35,35.35,0,0,1,.6,5c.06,1.1.08,2.2,0,3.29a27,27,0,0,1-1.36,7.76A17.72,17.72,0,0,1,48.79,40a18.07,18.07,0,0,1-4,3.47A24.23,24.23,0,0,1,40,45.91,20.08,20.08,0,0,1,35.87,47a18,18,0,0,1-3.27.2A18.83,18.83,0,0,1,26,45.79a21.28,21.28,0,0,1-4.2-2.34,24.56,24.56,0,0,1-2.34-1.93,22.86,22.86,0,0,1-3.78-4.43,18.82,18.82,0,0,1-1.82-3.64,21.49,21.49,0,0,1-1.05-3.81,20.52,20.52,0,0,1-.29-4.84,21.94,21.94,0,0,1,1.19-6,19.69,19.69,0,0,1,2.78-5.28A17.9,17.9,0,0,1,21,9.28a22.4,22.4,0,0,1,5-2.42,21.91,21.91,0,0,1,4-.91,27,27,0,0,1,4.9-.18c1.26,0,2.51.19,3.76.32a24.79,24.79,0,0,0,4.42.12c1-.08,2-.14,3-.25s2.09-.29,3.13-.48a34.41,34.41,0,0,0,5.32-1.36,27,27,0,0,0,4-1.87C59.77,1.58,60.9.86,62,.1l.23-.1ZM40.89,17.5a11.67,11.67,0,0,0,2.24-.13,14.74,14.74,0,0,0,5.74-2.51,16.93,16.93,0,0,0,3.47-3.19,12.77,12.77,0,0,0,1.5-2.28c.05-.1.16-.25,0-.36s-.22,0-.34,0c-.93.24-1.86.48-2.8.71-1.32.3-2.65.59-4,.8s-2.49.34-3.74.48a21.46,21.46,0,0,1-4.84,0c-1.54-.19-3.07-.51-4.62-.64a12,12,0,0,0-4.72.48,17.84,17.84,0,0,0-6.14,3.58,13.87,13.87,0,0,0-3.33,4.25,15.73,15.73,0,0,0-1.66,6.45,17.26,17.26,0,0,0,.19,3.39,16.78,16.78,0,0,0,2,5.93A14,14,0,0,0,24.14,39a17.11,17.11,0,0,0,4.13,2.15,16.79,16.79,0,0,0,5.13.94,13.81,13.81,0,0,0,2.94-.28A14.91,14.91,0,0,0,42,39.39a16.61,16.61,0,0,0,3.12-2.81,13.74,13.74,0,0,0,2.36-3.87,16.89,16.89,0,0,0,1.17-6.24c0-.64-.08-1.28-.13-1.93a18.83,18.83,0,0,0-.78-4c-.06-.19-.12-.22-.3-.17-.37.12-.75.23-1.13.33a22.37,22.37,0,0,1-4.41.78c-.44,0-.48.06-.33.48a12.34,12.34,0,0,1,.72,5.5,8.84,8.84,0,0,1-1.24,3.72,10.4,10.4,0,0,1-3.72,3.61,8,8,0,0,1-6.24,1,9.86,9.86,0,0,1-5.86-4.22,9,9,0,0,1-1.42-6.34A10.16,10.16,0,0,1,26,20a8,8,0,0,1,4.35-2.83,12,12,0,0,1,3.87-.37c.84.06,1.68.15,2.52.27A20.35,20.35,0,0,0,40.89,17.5Zm-2.45,8.58a5.18,5.18,0,0,0-5.15-5.21h-.08a5.32,5.32,0,0,0-5.33,5.21,5.28,5.28,0,0,0,10.56,0Z"/><path class="cls-1" d="M4.07,52a4.42,4.42,0,0,1-4-3.47,5,5,0,0,1,1.57-4.3A4.68,4.68,0,0,1,4,42.63a4.08,4.08,0,0,1,3.67.91,3.7,3.7,0,0,1,1.54,3A3.87,3.87,0,0,1,9,47.69c-.05.16-.13.19-.29.12-.43-.21-.86-.4-1.3-.59-.17-.07-.18-.15-.13-.32a1.9,1.9,0,0,0-.62-2.16,2,2,0,0,0-2.26-.37A4.94,4.94,0,0,0,1.8,47.81a1.88,1.88,0,0,0,.81,1.93A1.93,1.93,0,0,0,4.69,50a2.87,2.87,0,0,0,.38-.21c.42-.27.43-.27.72.15s.43.63.65.94c.08.11.11.18,0,.28A4.06,4.06,0,0,1,4.07,52Z"/></g></g></svg>