<svg xmlns="http://www.w3.org/2000/svg" viewBox="0 0 141.22 181.92"><defs><style>.cls-1{fill:#4c4b4b;}.cls-1,.cls-2,.cls-3{fill-rule:evenodd;}.cls-2{fill:#008a8c;}.cls-3{fill:#e197c0;}</style></defs><title>logo_convivencia</title><g id="Capa_1" data-name="Capa 1"><path class="cls-1" d="M41.22,135.15a14.53,14.53,0,0,0-6.93-5.45c-.77-.29-1-.06-1.06.75a1,1,0,0,0,.67,1,17.56,17.56,0,0,1,7.34,6.78c3,4.79,3.55,10.06,2.93,15.53a35.82,35.82,0,0,1-5,14.19,6.31,6.31,0,0,1-1.12,1.64c-2.11,1.89-4.27,3.73-6.56,5.41-3.53,2.58-7.3,4.54-11.76,4.95a8.55,8.55,0,0,1-4.18-.52.93.93,0,0,1-.56-.55,5,5,0,0,1-.45-2A3.09,3.09,0,0,0,13.9,175a32.45,32.45,0,0,0-2.78-3.36.86.86,0,0,0-1.37-.07,3.79,3.79,0,0,0-1.38,2.91c.11,1.47,1.17,2.58,1.71,3.89,0,0,.08.05.12.07,1.9,1.08,3.67,2.44,5.83,3,1.73.46,3.49,1,5.24,0a1,1,0,0,1,.93-.07c.49.3.87.09,1.29-.11l1-.46a59.17,59.17,0,0,0,10.24-5.54,23,23,0,0,0,6.85-7.46,37.38,37.38,0,0,0,4.54-17.58,27,27,0,0,0-.42-5.09A24.6,24.6,0,0,0,41.22,135.15Z" transform="translate(-0.05 -0.04)"/><path class="cls-1" d="M61.83,140.31a14.2,14.2,0,0,0-5.74-1.22,2.17,2.17,0,0,0-1.35.54A12.72,12.72,0,0,0,53,141.52a3.55,3.55,0,0,1-2.12,1.39,1.34,1.34,0,0,0-1,.65,10.27,10.27,0,0,0-1.63,6,22.62,22.62,0,0,0,.32,3.61c.31,2.08.46,4.19,1.61,6.09,2,3.27,4.17,3.8,7.36,3.07,1.87-.42,3.19-1.9,4.51-3.24a13.4,13.4,0,0,0,4-12.62C65.47,143.8,64.37,141.55,61.83,140.31ZM63.64,152c-.88,2.06-2.48,3.6-3.94,5.24a9.16,9.16,0,0,1-2.14,2.13,3.89,3.89,0,0,1-4.9-.9,10.65,10.65,0,0,1-2.33-6.64,16.72,16.72,0,0,1,.53-4.46A2.26,2.26,0,0,1,52,146c1-.59,1.81-1.29,1.66-2.62,0-.35.29-.56.52-.77a5.72,5.72,0,0,1,8.27.72c.16.22.3.46.48.66C65.17,146.47,64.82,149.2,63.64,152Z" transform="translate(-0.05 -0.04)"/><path class="cls-1" d="M80.2,135.24a11,11,0,0,1-2.25,2.12,3.46,3.46,0,0,0-1.22,2c0,.18-.09.4.13.53s.38,0,.52-.15.37-.4.56-.6.38-.44.68-.29a.64.64,0,0,1,.29.83q-.69,2.61-1.37,5.22-1.25,4.79-2.5,9.58c-.29,1.11-.61,2.22-.91,3.32h-.2c-.37-1.27-.72-2.55-1.11-3.81a87.18,87.18,0,0,0-3.95-10.11c-.13-.29-.27-.47-.65-.46-.74,0-.75.48-.68,1a18.41,18.41,0,0,0,1.23,4.32,38.14,38.14,0,0,1,1.86,5.05c.9,3.67,1.48,7.39,2,11.12.1.69.48.73.92.9.87.32,1.15.18,1.34-.71,1-4.7,1.68-9.46,2.52-14.19a19.6,19.6,0,0,1,1.29-5.29,12.51,12.51,0,0,0,.76-2.69,24.83,24.83,0,0,1,1.75-6c.31-.6-.08-1.19-.34-1.72A.42.42,0,0,0,80.2,135.24Z" transform="translate(-0.05 -0.04)"/><path class="cls-1" d="M125.64,150.52q-2.1,2.38-4.2,4.76c-1.06,1.19-2.14,2.36-3.22,3.54a1.26,1.26,0,0,1,0-.73,35.76,35.76,0,0,0,.82-10c-.12-2.38-.37-4.73-2-6.65-.38-.44-.72-.88-1.36-.9a7.28,7.28,0,0,0-2.48.32,13.46,13.46,0,0,0-6,4.3c-1.43,1.66-2.78,3.4-4.09,5.16-.14.19-.29.49-.55.41s-.2-.36-.25-.58a7.35,7.35,0,0,1,.12-3.23c.28-1.33.78-2.64.13-4-.12-.25-.18-.55-.52-.55a.65.65,0,0,0-.73.5c0,.17-.11.33-.15.49a27.33,27.33,0,0,0-.78,7.84c0,2.44,0,4.89.06,7.33,0,.63-.22.91-.88,1a52.42,52.42,0,0,1-9,.5A17.24,17.24,0,0,1,85.59,159a2.55,2.55,0,0,1-1.45-3.22,7.3,7.3,0,0,1,5.47-5q2.38-.68,4.74-1.39c.2-.06.51-.08.52-.35,0-.51-.34-.91-.47-1.38-.07-.24-.44-.1-.67-.09a46.8,46.8,0,0,1-5,.24,7.93,7.93,0,0,1-3.95-1.08c-.19-.12-.44-.25-.41-.48s.29-.23.47-.3l5-2.2c1.35-.58,2.66-1.32,4.23-.94a.64.64,0,0,0,.76-.45c.14-.41-.21-.5-.45-.65a2.57,2.57,0,0,0-.4-.18,5.74,5.74,0,0,0-4.12.13c-2.57.84-4.94,2.23-7.6,2.82a.48.48,0,0,0-.25.14,3.73,3.73,0,0,0,.05,3,7.83,7.83,0,0,0,2.45,1.87c.63.36.49.6.05.94a5.9,5.9,0,0,0-1.82,2.31,6.66,6.66,0,0,0-.74,4.64c.38,1.3,1.37,2.27,2,3.44a1,1,0,0,0,.42.29,15,15,0,0,0,7.26,1.42c2.81-.11,5.61-.37,8.41-.58.47,0,.75.07.9.53.09.27.19.57.58.58a.78.78,0,0,0,.8-.54,2.93,2.93,0,0,1,.84-1.09,1.81,1.81,0,0,0,0-3,1.52,1.52,0,0,1-.6-1.59,13.32,13.32,0,0,1,.52-2.3,25.72,25.72,0,0,1,6.73-9.95,6.64,6.64,0,0,1,4-1.81,1.81,1.81,0,0,1,2.09,1.1,15.15,15.15,0,0,1,1,2.91c.88,4.14.09,8.12-1.18,12a2.44,2.44,0,0,0-3.22-.38.5.5,0,0,1-.61,0c-1.09-.78-1.5-.79-2.6,0-2.29,1.73-4.56,3.48-6.84,5.22l-8.88,6.82-3.27,2.54a1,1,0,0,0,.83-.2c1.22-.59,2.38-1.27,3.55-2a67.25,67.25,0,0,0,6.39-4.62c1.74-1.32,3.46-2.66,5.26-3.9a1.31,1.31,0,0,1,.82-.27c0,.34-.26.52-.45.74l-1.28,1.52a.72.72,0,0,0-.1,1,4.82,4.82,0,0,0,1.68,1.29c.24.12.37,0,.51-.14l3.5-3.48c.72-.71,1.43-1.42,2.16-2.12.19-.18.44-.43.58.06l.07.35a20.12,20.12,0,0,0-1.1,4c-.07.27.2.6.5.76s.5,0,.72-.2a19.54,19.54,0,0,0,3-3.91.72.72,0,0,1,.57-.28c.63,0,.77-.39.77-.91,0-.24,0-.48,0-.73a6.18,6.18,0,0,0,1.37-1.68c2.14-2.73,4.3-5.43,6.45-8.15.1-.13.27-.24,0-.65C126.09,150,125.88,150.26,125.64,150.52Z" transform="translate(-0.05 -0.04)"/><path class="cls-1" d="M28.64,69.25a38.91,38.91,0,0,0,3.77,7.52,47.25,47.25,0,0,0,7.82,9.16,50.78,50.78,0,0,0,4.84,4,44,44,0,0,0,8.68,4.83,38.93,38.93,0,0,0,13.69,2.93,37.27,37.27,0,0,0,6.77-.42A41.52,41.52,0,0,0,82.8,95a50.09,50.09,0,0,0,9.79-5.05,37.36,37.36,0,0,0,8.27-7.18,36.63,36.63,0,0,0,6.35-11.58A55.79,55.79,0,0,0,110,55.13c.09-2.26,0-4.54-.08-6.81A73.07,73.07,0,0,0,108.71,38a2.09,2.09,0,0,1,.78-2.37A49,49,0,0,0,118,26a47.34,47.34,0,0,0,5.41-10.61c1.15-3.3,2.41-6.56,3.56-9.86.63-1.79,1.34-3.54,1.84-5.37L128.68,0a2.81,2.81,0,0,0-.47.21c-2.29,1.57-4.63,3.06-7.06,4.42a55.86,55.86,0,0,1-8.33,3.86,71.14,71.14,0,0,1-11,2.81q-3.22.61-6.47,1c-2.07.24-4.16.37-6.25.52A51.24,51.24,0,0,1,80,12.64c-2.59-.27-5.18-.56-7.78-.66a55.91,55.91,0,0,0-10.11.39,45.29,45.29,0,0,0-8.24,1.89,46.31,46.31,0,0,0-10.32,5,37,37,0,0,0-9.49,8.87,40.71,40.71,0,0,0-5.74,10.91,45.36,45.36,0,0,0-2.46,12.31,42.42,42.42,0,0,0,.6,10A44.43,44.43,0,0,0,28.64,69.25ZM36.69,52a32.52,32.52,0,0,1,3.46-13.38A28.68,28.68,0,0,1,47,29.88a36.88,36.88,0,0,1,12.64-7.42,24.76,24.76,0,0,1,9.75-1c3.21.28,6.36.93,9.55,1.33a44.37,44.37,0,0,0,10,.08c2.59-.26,5.18-.54,7.74-1,2.76-.46,5.5-1.05,8.22-1.66,1.94-.43,3.86-1,5.78-1.47.24-.06.51-.2.7,0s0,.54-.08.75a26.39,26.39,0,0,1-3.11,4.71,35,35,0,0,1-7.18,6.6A30.48,30.48,0,0,1,89.2,36a24.13,24.13,0,0,1-4.63.3c-2.81.15-5.67-.53-8.56-1-1.73-.25-3.45-.44-5.2-.56a24.78,24.78,0,0,0-8,.77,16.43,16.43,0,0,0-9,5.86,21,21,0,0,0-4.42,10.77,18.64,18.64,0,0,0,2.94,13.1A20.38,20.38,0,0,0,64.44,74a16.57,16.57,0,0,0,12.89-2A21.5,21.5,0,0,0,85,64.48a18.27,18.27,0,0,0,2.52-7.65,25.51,25.51,0,0,0-1.49-11.38c-.31-.88-.23-1,.68-1a46.24,46.24,0,0,0,9.12-1.61c.78-.22,1.56-.44,2.33-.69.36-.11.49,0,.61.35a38.93,38.93,0,0,1,1.62,8.37c.1,1.32.29,2.64.27,4a34.92,34.92,0,0,1-2.41,12.89,28.4,28.4,0,0,1-4.87,8A34.34,34.34,0,0,1,87,81.48a30.83,30.83,0,0,1-11.79,5,28.56,28.56,0,0,1-6.08.57,34.72,34.72,0,0,1-10.61-1.94,35.38,35.38,0,0,1-8.54-4.44,29,29,0,0,1-8.74-9.46A34.68,34.68,0,0,1,37.08,59,35.68,35.68,0,0,1,36.69,52Zm42.82,2a10.92,10.92,0,0,1-21.83,0,11,11,0,0,1,11-10.81A10.71,10.71,0,0,1,79.51,54Z" transform="translate(-0.05 -0.04)"/><path class="cls-1" d="M13.24,105.81c.3-.2.24-.35.08-.58-.46-.64-.9-1.3-1.35-1.94-.61-.87-.62-.87-1.49-.31a5.94,5.94,0,0,1-.78.43,4,4,0,0,1-4.31-.47,3.88,3.88,0,0,1-1.67-4,10.22,10.22,0,0,1,5.41-7.11,4.06,4.06,0,0,1,4.68.76A3.92,3.92,0,0,1,15.11,97c-.11.36-.11.52.26.67.91.38,1.81.78,2.69,1.21.33.16.48.1.59-.24a8,8,0,0,0,.5-2.44A7.65,7.65,0,0,0,16,90.1a8.44,8.44,0,0,0-7.52-1.88,9.67,9.67,0,0,0-5,3.2c-2.25,2.53-3.79,5.3-3.25,8.89s4.53,7.18,8.29,7.18A8.39,8.39,0,0,0,13.24,105.81Z" transform="translate(-0.05 -0.04)"/><path class="cls-1" d="M48.71,125.22c1,.12,2.06.23,3.08.36a.64.64,0,0,0,.74-.43q4.28-8.66,8.59-17.31c.25-.5,0-.58-.36-.63-1-.11-1.91-.2-2.86-.33a.69.69,0,0,0-.83.49c-1,2.3-2.13,4.59-3.2,6.88l-2.93,6.27c-.29-1.33-.54-2.43-.78-3.53Q49,111.71,47.9,106.41c-.1-.48-.28-.75-.83-.79-1-.07-2-.23-2.93-.36-.43-.06-.54,0-.42.52q2.2,9.43,4.35,18.88A.64.64,0,0,0,48.71,125.22Z" transform="translate(-0.05 -0.04)"/><path class="cls-1" d="M140.92,94.2a7.14,7.14,0,0,1-2.48-1.69c-1.66-1.59-3.13-3.37-4.86-4.88a3.56,3.56,0,0,0-4.84-.39,12.05,12.05,0,0,0-3.09,2.85,4.56,4.56,0,0,0-1.22,3.11,4.9,4.9,0,0,0,.49,2.26c.12.29.26.44.59.2.68-.49,1.38-.95,2.08-1.41a.45.45,0,0,0,.22-.55,3,3,0,0,1,1.89-3.57,1.71,1.71,0,0,1,2,.59c.49.52-.08.84-.23,1.23a5,5,0,0,1-.5.82,24.39,24.39,0,0,0-2.38,4,4,4,0,0,0,4.13,5.3,5.73,5.73,0,0,0,4.65-5c.06-.82.08-.85.79-.41a.85.85,0,0,0,1.31-.18A18.38,18.38,0,0,1,141,94.84C141.32,94.55,141.42,94.38,140.92,94.2Zm-7.22,4.29a1.76,1.76,0,0,1-1.95-.51,1.56,1.56,0,0,1-.21-1.85c.51-1.12,1.3-2.08,1.88-3.16.07-.14.18-.29.33-.13.79.85,1.82,1.55,1.82,2.9A2.91,2.91,0,0,1,133.7,98.49Z" transform="translate(-0.05 -0.04)"/><path class="cls-1" d="M14.27,108.71c-.33,4,3.79,7.31,7.3,7.26,4.12.09,7.2-3.43,7.36-7.45.16-3.83-3.29-7.2-7.45-7.24C17.47,101.25,14.6,104.76,14.27,108.71Zm3.59.43a6.27,6.27,0,0,1,2-3.78,3.17,3.17,0,0,1,3.56-.62,3,3,0,0,1,1.95,3.11A5.82,5.82,0,0,1,23,112.26a2.56,2.56,0,0,1-1.7.58A3.3,3.3,0,0,1,17.86,109.14Z" transform="translate(-0.05 -0.04)"/><path class="cls-1" d="M86.61,118.6c2.65-.51,5.29-1.08,7.94-1.58.42-.08.46-.23.38-.57a12.82,12.82,0,0,0-1.07-3.13,5.74,5.74,0,0,0-5.44-3.41,6.07,6.07,0,0,0-6,3.67,8.68,8.68,0,0,0,.24,7,5.77,5.77,0,0,0,5.56,3.91,14,14,0,0,0,2-.2,5.88,5.88,0,0,0,4.95-4.74c.07-.38,0-.48-.38-.46-1,.06-1.92.11-2.88.14-.36,0-.35.2-.4.47a2.26,2.26,0,0,1-1.85,1.94,3.07,3.07,0,0,1-3.54-2.18C85.92,118.87,86.07,118.7,86.61,118.6Zm-.67-2.11c-.71.12-.37-.56-.49-.83a2.82,2.82,0,0,1,2.47-3,2.91,2.91,0,0,1,3,2.3c.07.3.07.49-.31.57C89.05,115.86,87.5,116.23,85.94,116.49Z" transform="translate(-0.05 -0.04)"/><path class="cls-1" d="M38.61,114.16c-.69,2.56-1.55,5.07-2.38,7.59-.17.51-.1.72.44.86.81.2,1.6.48,2.39.74.34.11.48.09.61-.32.93-3,1.91-6,2.84-9.06a3.86,3.86,0,0,0-.56-3.78,5.47,5.47,0,0,0-4.14-2,6.29,6.29,0,0,0-3.55,1.14c.2-.66.32-1.15.51-1.62.11-.28.06-.37-.23-.45a24,24,0,0,1-2.31-.75c-.5-.2-.63,0-.76.41q-1.93,6.11-3.89,12.21c-.13.39,0,.53.31.63.82.24,1.65.48,2.45.78.42.15.58.11.72-.36.55-1.83,1.14-3.65,1.75-5.47a10.52,10.52,0,0,1,1.3-3,2.84,2.84,0,0,1,3.51-.84c1.06.48,1.41,1.35,1.12,2.79C38.71,113.83,38.66,114,38.61,114.16Z" transform="translate(-0.05 -0.04)"/><path class="cls-1" d="M102.84,108.52a2.64,2.64,0,0,1,1.58,1.75c1,2.5,2,5,3,7.53.21.55.41.63.93.39a20.92,20.92,0,0,1,2.26-.88c.38-.13.44-.31.3-.66-1.18-3-2.3-6-3.56-8.9-1-2.35-2.88-3.1-5.34-2.36a5.72,5.72,0,0,0-3.9,4.06c-.25-.61-.46-1-.59-1.47s-.31-.43-.65-.28c-.75.31-1.5.61-2.27.89-.31.11-.4.22-.26.58q2.39,6,4.73,12.08c.16.41.31.46.68.31.79-.33,1.59-.65,2.4-.93.39-.14.48-.33.32-.71-.32-.77-.64-1.55-.92-2.33a40.75,40.75,0,0,1-2.07-5.9A2.84,2.84,0,0,1,102.84,108.52Z" transform="translate(-0.05 -0.04)"/><path class="cls-1" d="M113.23,102.95a2.32,2.32,0,0,1,3.27.1c.23.21.38.13.56,0l2.08-1.9c.18-.16.32-.3,0-.52a6,6,0,0,0-3.34-1.41,7,7,0,0,0-4.21,1.38,6.1,6.1,0,0,0-2.87,6.66,9.82,9.82,0,0,0,3.32,5.3,5.51,5.51,0,0,0,3.6,1.37,7.48,7.48,0,0,0,5-2,5.6,5.6,0,0,0,1.82-6.32c-.11-.38-.21-.54-.64-.34-.77.37-1.57.71-2.37,1-.39.15-.49.32-.35.71a2.61,2.61,0,0,1,.13,1.73,2.86,2.86,0,0,1-4.7,1.11,8.38,8.38,0,0,1-2.33-3.55A2.68,2.68,0,0,1,113.23,102.95Z" transform="translate(-0.05 -0.04)"/><path class="cls-1" d="M73.93,126.31c.73-.1,1.47-.21,2.2-.24.47,0,.61-.25.72-.64.4-1.44.84-2.87,1.26-4.31l2.77-9.47c-1.09.1-2.11.23-3.13.26a.68.68,0,0,0-.75.61q-.37,1.46-.77,2.92c-.56,2.06-1.14,4.11-1.64,6.42-1.27-3.07-2.7-5.82-4-8.63a.8.8,0,0,0-1-.56c-.85.12-1.71.23-2.57.27-.57,0-.51.21-.31.6q3.2,6.15,6.36,12.32A.69.69,0,0,0,73.93,126.31Z" transform="translate(-0.05 -0.04)"/><path class="cls-1" d="M65.26,112.65c-.86,0-1.73,0-2.59,0-.39,0-.5.12-.51.5Q62.11,119.55,62,126c0,.45.15.54.54.54.84,0,1.68,0,2.52.06.54,0,.66-.15.65-.66,0-2.1,0-4.2,0-6.29h.15c0-2.12,0-4.25,0-6.37C65.88,112.79,65.75,112.63,65.26,112.65Z" transform="translate(-0.05 -0.04)"/><path class="cls-1" d="M129.4,104.25l-7-9.93c-.13-.17-.21-.4-.47-.48l-.22.16c-.76.54-1.52,1.09-2.3,1.61-.3.2-.3.36-.1.65q3.79,5.32,7.56,10.66c.2.28.32.28.57.09.74-.53,1.48-1.06,2.23-1.57.31-.21.39-.4.12-.7A5,5,0,0,1,129.4,104.25Z" transform="translate(-0.05 -0.04)"/><path class="cls-1" d="M120.63,91.87q-.78-1.08-1.53-2.17c-.14-.2-.26-.24-.47-.09q-1.2.87-2.41,1.71c-.24.17-.24.31-.07.54.5.67,1,1.36,1.46,2,.08.11.18.22.27.32a1.58,1.58,0,0,0,.24-.1l2.47-1.76C120.8,92.19,120.77,92.06,120.63,91.87Z" transform="translate(-0.05 -0.04)"/><path class="cls-1" d="M65.61,107.31q-1.48,0-3-.06c-.29,0-.38.11-.38.39,0,.84,0,1.67,0,2.51,0,.14,0,.28,0,.42a1.59,1.59,0,0,0,.26.06l3,.05c.27,0,.32-.12.33-.36q0-1.33.06-2.66C65.93,107.41,65.86,107.31,65.61,107.31Z" transform="translate(-0.05 -0.04)"/><path class="cls-2" d="M118.49,160.12c0,.24,0,.48,0,.73,0,.52-.14.92-.77.91a.72.72,0,0,0-.57.28,1.16,1.16,0,0,0-.63.12,1.45,1.45,0,0,1-2.08-.52c-.12-.14-.22-.26-.41-.26l-.07-.35a2.33,2.33,0,0,0,1.95-2.15c1.27-3.93,2.05-7.91,1.18-12a15.15,15.15,0,0,0-1-2.91,1.81,1.81,0,0,0-2.09-1.1,6.64,6.64,0,0,0-4,1.81,25.72,25.72,0,0,0-6.73,9.95,13.32,13.32,0,0,0-.52,2.3,1.52,1.52,0,0,0,.6,1.59,1.81,1.81,0,0,1,0,3,2.93,2.93,0,0,0-.84,1.09.78.78,0,0,1-.8.54c-.39,0-.49-.31-.58-.58-.15-.45-.43-.57-.9-.53-2.8.22-5.6.48-8.41.58a15,15,0,0,1-7.26-1.42,1,1,0,0,1-.42-.29c-.63-1.17-1.62-2.14-2-3.44a6.66,6.66,0,0,1,.74-4.64,5.9,5.9,0,0,1,1.82-2.31c.44-.34.58-.58-.05-.94a7.83,7.83,0,0,1-2.45-1.87,3.73,3.73,0,0,1-.05-3,.48.48,0,0,1,.25-.14c2.66-.59,5-2,7.6-2.82a5.74,5.74,0,0,1,4.12-.13,2.57,2.57,0,0,1,.4.18c.24.15.59.24.45.65a.64.64,0,0,1-.76.45c-1.57-.38-2.89.35-4.23.94l-5,2.2c-.18.08-.45.11-.47.3s.22.36.41.48a7.93,7.93,0,0,0,3.95,1.08,46.8,46.8,0,0,0,5-.24c.23,0,.61-.16.67.09.13.48.49.88.47,1.38,0,.27-.32.29-.52.35q-2.37.71-4.74,1.39a7.3,7.3,0,0,0-5.47,5A2.55,2.55,0,0,0,85.59,159a17.24,17.24,0,0,0,4.95,1.07,52.41,52.41,0,0,0,9-.5c.66-.1.89-.38.88-1,0-2.44,0-4.89-.06-7.33a27.33,27.33,0,0,1,.78-7.84c0-.17.11-.33.15-.49a.65.65,0,0,1,.73-.5c.33,0,.4.3.52.55.65,1.36.15,2.68-.13,4a7.35,7.35,0,0,0-.12,3.23c.05.22.06.52.25.58s.41-.22.55-.41c1.32-1.76,2.66-3.49,4.09-5.16a13.46,13.46,0,0,1,6-4.3,7.28,7.28,0,0,1,2.48-.32c.65,0,1,.46,1.36.9,1.66,1.92,1.91,4.27,2,6.65a35.76,35.76,0,0,1-.82,10,1.26,1.26,0,0,0,0,.73A1.62,1.62,0,0,0,118.49,160.12Z" transform="translate(-0.05 -0.04)"/><path class="cls-2" d="M46.16,150.18a37.38,37.38,0,0,1-4.54,17.58,23,23,0,0,1-6.85,7.46,59.17,59.17,0,0,1-10.24,5.54l-1,.46c-.41.2-.8.41-1.29.11a1,1,0,0,0-.93.07c-1.75,1-3.51.47-5.24,0-2.16-.57-3.92-1.92-5.83-3,0,0-.11,0-.12-.07-.55-1.31-1.6-2.42-1.71-3.89a3.79,3.79,0,0,1,1.38-2.91.86.86,0,0,1,1.37.07A32.45,32.45,0,0,1,13.9,175a3.09,3.09,0,0,1,.64,1.85,5,5,0,0,0,.45,2,.93.93,0,0,0,.56.55,8.56,8.56,0,0,0,4.18.52c4.46-.4,8.23-2.36,11.76-4.95,2.29-1.68,4.44-3.51,6.56-5.41a6.31,6.31,0,0,0,1.12-1.64,35.82,35.82,0,0,0,5-14.19c.62-5.47,0-10.74-2.93-15.53a17.56,17.56,0,0,0-7.34-6.78,1,1,0,0,1-.67-1c0-.81.29-1,1.06-.75a14.53,14.53,0,0,1,6.93,5.45,24.6,24.6,0,0,1,4.52,9.94A27,27,0,0,1,46.16,150.18Z" transform="translate(-0.05 -0.04)"/><path class="cls-2" d="M48.23,149.52a10.27,10.27,0,0,1,1.63-6,1.34,1.34,0,0,1,1-.65A3.55,3.55,0,0,0,53,141.52a12.72,12.72,0,0,1,1.76-1.88,2.17,2.17,0,0,1,1.35-.54,14.2,14.2,0,0,1,5.74,1.22c2.54,1.24,3.64,3.49,4.16,6.11A13.4,13.4,0,0,1,62,159c-1.32,1.34-2.64,2.82-4.51,3.24-3.19.73-5.38.2-7.36-3.07-1.15-1.9-1.29-4-1.61-6.09A22.62,22.62,0,0,1,48.23,149.52Zm2.11,2.29a10.65,10.65,0,0,0,2.33,6.64,3.89,3.89,0,0,0,4.9.9,9.16,9.16,0,0,0,2.14-2.13c1.46-1.63,3.06-3.17,3.94-5.24,1.18-2.78,1.53-5.51-.67-8-.18-.2-.32-.44-.48-.66a5.72,5.72,0,0,0-8.27-.72c-.23.21-.55.42-.52.77.15,1.33-.65,2-1.66,2.62a2.26,2.26,0,0,0-1.16,1.37A16.72,16.72,0,0,0,50.34,151.81Z" transform="translate(-0.05 -0.04)"/><path class="cls-2" d="M74.12,157.77c.31-1.11.62-2.21.91-3.32q1.25-4.79,2.5-9.58.68-2.61,1.37-5.22a.64.64,0,0,0-.29-.83c-.31-.16-.5.1-.68.29s-.36.41-.56.6-.28.29-.52.15-.17-.35-.13-.53a3.46,3.46,0,0,1,1.22-2,11,11,0,0,0,2.25-2.12.42.42,0,0,1,.69-.06c.26.53.65,1.12.34,1.72a24.83,24.83,0,0,0-1.75,6,12.51,12.51,0,0,1-.76,2.69,19.6,19.6,0,0,0-1.29,5.29c-.84,4.73-1.49,9.49-2.52,14.19-.19.89-.48,1-1.34.71-.44-.16-.82-.21-.92-.9-.54-3.73-1.12-7.45-2-11.12a38.14,38.14,0,0,0-1.86-5.05,18.41,18.41,0,0,1-1.23-4.32c-.07-.53-.06-1,.68-1,.38,0,.52.17.65.46A87.18,87.18,0,0,1,72.81,154c.39,1.26.74,2.54,1.11,3.81Z" transform="translate(-0.05 -0.04)"/><path class="cls-3" d="M114,161.39c.19,0,.29.12.41.26a1.45,1.45,0,0,0,2.08.52,1.16,1.16,0,0,1,.63-.12,19.54,19.54,0,0,1-3,3.91c-.22.19-.43.36-.72.2s-.56-.5-.5-.76A20.12,20.12,0,0,1,114,161.39Z" transform="translate(-0.05 -0.04)"/><path class="cls-3" d="M118.49,160.12a1.62,1.62,0,0,1-.26-1.29c1.07-1.18,2.16-2.35,3.22-3.54q2.11-2.37,4.2-4.76c.23-.27.45-.56.71-.89.23.41.06.52,0,.65-2.15,2.72-4.31,5.42-6.45,8.15A6.18,6.18,0,0,1,118.49,160.12Z" transform="translate(-0.05 -0.04)"/><path class="cls-3" d="M115.89,158.89a2.33,2.33,0,0,1-1.95,2.15c-.14-.49-.39-.24-.58-.06-.73.7-1.44,1.41-2.16,2.12l-3.5,3.48c-.14.14-.27.26-.51.14a4.82,4.82,0,0,1-1.68-1.29.72.72,0,0,1,.1-1l1.28-1.52c.19-.22.42-.4.45-.74a1.31,1.31,0,0,0-.82.27c-1.8,1.24-3.52,2.58-5.26,3.9A67.26,67.26,0,0,1,94.86,171c-1.17.68-2.33,1.36-3.55,2a1,1,0,0,1-.83.2l3.27-2.54,8.88-6.82c2.28-1.74,4.55-3.49,6.84-5.22,1.1-.83,1.51-.82,2.6,0a.5.5,0,0,0,.61,0A2.44,2.44,0,0,1,115.89,158.89Z" transform="translate(-0.05 -0.04)"/><path class="cls-3" d="M128.77.11c-.49,1.83-1.21,3.58-1.84,5.37-1.15,3.3-2.41,6.56-3.56,9.86A47.34,47.34,0,0,1,118,26a49,49,0,0,1-8.47,9.7,2.09,2.09,0,0,0-.78,2.37A73.07,73.07,0,0,1,110,48.32c.12,2.27.17,4.54.08,6.81a55.78,55.78,0,0,1-2.82,16.05,36.63,36.63,0,0,1-6.35,11.58,37.36,37.36,0,0,1-8.27,7.18A50.09,50.09,0,0,1,82.8,95a41.52,41.52,0,0,1-8.61,2.25,37.27,37.27,0,0,1-6.77.42,38.93,38.93,0,0,1-13.69-2.93,44,44,0,0,1-8.68-4.83,50.78,50.78,0,0,1-4.84-4,47.25,47.25,0,0,1-7.82-9.16,38.91,38.91,0,0,1-3.77-7.52,44.42,44.42,0,0,1-2.18-7.87,42.42,42.42,0,0,1-.6-10,45.36,45.36,0,0,1,2.46-12.31,40.71,40.71,0,0,1,5.74-10.91,37,37,0,0,1,9.49-8.87,46.31,46.31,0,0,1,10.32-5,45.29,45.29,0,0,1,8.24-1.89A55.92,55.92,0,0,1,72.21,12c2.6.1,5.19.4,7.78.66a51.24,51.24,0,0,0,9.14.24c2.08-.16,4.17-.29,6.25-.52s4.32-.59,6.47-1a71.14,71.14,0,0,0,11-2.81,55.86,55.86,0,0,0,8.33-3.86c2.42-1.37,4.76-2.86,7.06-4.42a2.81,2.81,0,0,1,.47-.21ZM84.57,36.26A24.13,24.13,0,0,0,89.2,36a30.48,30.48,0,0,0,11.86-5.19,35,35,0,0,0,7.18-6.6,26.39,26.39,0,0,0,3.11-4.71c.11-.21.33-.51.08-.75s-.46,0-.7,0c-1.92.5-3.84,1-5.78,1.47-2.73.61-5.47,1.21-8.22,1.66-2.56.43-5.15.71-7.74,1a44.37,44.37,0,0,1-10-.08c-3.19-.4-6.34-1.06-9.55-1.33a24.76,24.76,0,0,0-9.75,1A36.88,36.88,0,0,0,47,29.88a28.68,28.68,0,0,0-6.88,8.78A32.52,32.52,0,0,0,36.69,52a35.68,35.68,0,0,0,.39,7A34.68,34.68,0,0,0,41.2,71.25a29,29,0,0,0,8.74,9.46,35.38,35.38,0,0,0,8.54,4.44,34.72,34.72,0,0,0,10.61,1.94,28.56,28.56,0,0,0,6.08-.57,30.83,30.83,0,0,0,11.79-5,34.33,34.33,0,0,0,6.46-5.81,28.4,28.4,0,0,0,4.87-8,34.92,34.92,0,0,0,2.41-12.89c0-1.33-.17-2.65-.27-4a38.93,38.93,0,0,0-1.62-8.37c-.12-.39-.25-.46-.61-.35-.77.25-1.55.47-2.33.69a46.24,46.24,0,0,1-9.12,1.61c-.91.07-1,.13-.68,1a25.51,25.51,0,0,1,1.49,11.38A18.27,18.27,0,0,1,85,64.48a21.5,21.5,0,0,1-7.7,7.47,16.57,16.57,0,0,1-12.89,2,20.38,20.38,0,0,1-12.11-8.73,18.64,18.64,0,0,1-2.94-13.1,21,21,0,0,1,4.42-10.77,16.43,16.43,0,0,1,9-5.86,24.78,24.78,0,0,1,8-.77c1.74.13,3.47.31,5.2.56C78.9,35.73,81.76,36.42,84.57,36.26ZM79.51,54A10.71,10.71,0,0,0,68.69,43.23,11,11,0,0,0,57.67,54a10.92,10.92,0,0,0,21.83,0Z" transform="translate(-0.05 -0.04)"/><path class="cls-1" d="M8.45,107.49c-3.76,0-7.72-3.49-8.29-7.18s1-6.36,3.25-8.89a9.67,9.67,0,0,1,5-3.2A8.44,8.44,0,0,1,16,90.1a7.65,7.65,0,0,1,3.18,6.14,8,8,0,0,1-.5,2.44c-.11.34-.26.4-.59.24-.88-.43-1.78-.83-2.69-1.21-.36-.15-.37-.31-.26-.67a3.92,3.92,0,0,0-1.29-4.46,4.06,4.06,0,0,0-4.68-.76,10.22,10.22,0,0,0-5.41,7.11,3.88,3.88,0,0,0,1.67,4,4,4,0,0,0,4.31.47,5.94,5.94,0,0,0,.78-.43c.87-.56.88-.56,1.49.31.45.64.89,1.3,1.35,1.94.16.23.22.37-.08.58A8.39,8.39,0,0,1,8.45,107.49Z" transform="translate(-0.05 -0.04)"/><path class="cls-1" d="M50.93,120.53l2.93-6.27c1.07-2.29,2.16-4.58,3.2-6.88a.69.69,0,0,1,.83-.49c1,.12,1.91.22,2.86.33.41,0,.61.13.36.63q-4.32,8.64-8.59,17.31a.64.64,0,0,1-.74.43c-1-.13-2.05-.24-3.08-.36a.64.64,0,0,1-.65-.56q-2.15-9.45-4.35-18.88c-.11-.48,0-.57.42-.52,1,.13,2,.29,2.93.36.56,0,.73.31.83.79Q49,111.71,50.15,117C50.39,118.1,50.64,119.2,50.93,120.53Z" transform="translate(-0.05 -0.04)"/><path class="cls-1" d="M124.43,93.2a4.56,4.56,0,0,1,1.22-3.11,12.05,12.05,0,0,1,3.09-2.85,3.56,3.56,0,0,1,4.84.39c1.73,1.52,3.19,3.3,4.86,4.88a7.14,7.14,0,0,0,2.48,1.69c.51.18.41.35.11.63a18.39,18.39,0,0,0-1.57,1.56.85.85,0,0,1-1.31.18c-.71-.44-.73-.41-.79.41a5.73,5.73,0,0,1-4.65,5,4,4,0,0,1-4.13-5.3,24.39,24.39,0,0,1,2.38-4,5,5,0,0,0,.5-.82c.15-.39.72-.71.23-1.23a1.71,1.71,0,0,0-2-.59,3,3,0,0,0-1.89,3.57.45.45,0,0,1-.22.55c-.7.46-1.4.92-2.08,1.41-.33.24-.47.09-.59-.2A4.9,4.9,0,0,1,124.43,93.2Zm11.14,2.55c0-1.35-1-2.05-1.82-2.9-.15-.16-.26,0-.33.13-.58,1.08-1.37,2-1.88,3.16a1.56,1.56,0,0,0,.21,1.85,1.76,1.76,0,0,0,1.95.51A2.91,2.91,0,0,0,135.57,95.75Z" transform="translate(-0.05 -0.04)"/><path class="cls-1" d="M21.57,116c-3.51.05-7.63-3.25-7.3-7.26s3.21-7.46,7.2-7.42c4.16,0,7.61,3.41,7.45,7.24C28.76,112.55,25.68,116.06,21.57,116Zm-.27-3.13a2.56,2.56,0,0,0,1.7-.58,5.82,5.82,0,0,0,2.36-4.41,3,3,0,0,0-1.95-3.11,3.17,3.17,0,0,0-3.56.62,6.27,6.27,0,0,0-2,3.78A3.3,3.3,0,0,0,21.3,112.84Z" transform="translate(-0.05 -0.04)"/><path class="cls-1" d="M88.25,124.45a5.77,5.77,0,0,1-5.56-3.91,8.68,8.68,0,0,1-.24-7,6.07,6.07,0,0,1,6-3.67,5.74,5.74,0,0,1,5.44,3.41,12.82,12.82,0,0,1,1.07,3.13c.08.34,0,.49-.38.57-2.65.51-5.29,1.07-7.94,1.58-.54.1-.68.27-.49.81a3.07,3.07,0,0,0,3.54,2.18,2.26,2.26,0,0,0,1.85-1.94c.05-.26,0-.46.4-.47,1,0,1.93-.08,2.88-.14.37,0,.45.08.38.46a5.88,5.88,0,0,1-4.95,4.74A14,14,0,0,1,88.25,124.45Zm-2.81-8.79c.12.27-.21.95.49.83,1.57-.26,3.11-.63,4.67-.93.38-.08.38-.26.31-.57a2.91,2.91,0,0,0-3-2.3A2.82,2.82,0,0,0,85.44,115.66Z" transform="translate(-0.05 -0.04)"/><path class="cls-1" d="M34.25,109.36a6.29,6.29,0,0,1,3.55-1.14,5.47,5.47,0,0,1,4.14,2A3.86,3.86,0,0,1,42.5,114c-.92,3-1.91,6-2.84,9.06-.13.41-.26.43-.61.32-.79-.27-1.58-.54-2.39-.74-.54-.14-.61-.35-.44-.86.83-2.52,1.68-5,2.38-7.59,0-.17.09-.33.13-.5.29-1.44-.06-2.31-1.12-2.79a2.84,2.84,0,0,0-3.51.84,10.52,10.52,0,0,0-1.3,3c-.61,1.81-1.2,3.63-1.75,5.47-.14.47-.3.51-.72.36-.81-.29-1.63-.53-2.45-.78-.35-.11-.44-.24-.31-.63q2-6.1,3.89-12.21c.13-.42.27-.62.76-.41a24,24,0,0,0,2.31.75c.29.08.34.17.23.45C34.58,108.21,34.45,108.71,34.25,109.36Z" transform="translate(-0.05 -0.04)"/><path class="cls-1" d="M98.08,109.45a5.72,5.72,0,0,1,3.9-4.06c2.47-.73,4.33,0,5.34,2.36,1.26,2.93,2.38,5.93,3.56,8.9.14.35.08.52-.3.66a20.92,20.92,0,0,0-2.26.88c-.52.25-.72.17-.93-.39-1-2.52-2-5-3-7.53a2.64,2.64,0,0,0-1.58-1.75,2.84,2.84,0,0,0-3.38,3.17,40.75,40.75,0,0,0,2.07,5.9c.29.78.6,1.56.92,2.33.16.38.08.57-.32.71-.81.28-1.61.61-2.4.93-.37.15-.52.1-.68-.31q-2.33-6.05-4.73-12.08c-.14-.36-.05-.47.26-.58.76-.28,1.52-.57,2.27-.89.34-.14.53-.11.65.28S97.83,108.84,98.08,109.45Z" transform="translate(-0.05 -0.04)"/><path class="cls-1" d="M115.67,113.89a5.51,5.51,0,0,1-3.6-1.37,9.82,9.82,0,0,1-3.32-5.3,6.1,6.1,0,0,1,2.87-6.66,7,7,0,0,1,4.21-1.38,6,6,0,0,1,3.34,1.41c.28.22.15.35,0,.52l-2.08,1.9c-.18.17-.33.24-.56,0a2.32,2.32,0,0,0-3.27-.1,2.68,2.68,0,0,0-1,3.33,8.38,8.38,0,0,0,2.33,3.55,2.86,2.86,0,0,0,4.7-1.11,2.61,2.61,0,0,0-.13-1.73c-.14-.39,0-.56.35-.71.8-.3,1.6-.64,2.37-1,.43-.2.53,0,.64.34a5.6,5.6,0,0,1-1.82,6.32A7.48,7.48,0,0,1,115.67,113.89Z" transform="translate(-0.05 -0.04)"/><path class="cls-1" d="M74.6,121.86c.5-2.31,1.07-4.36,1.64-6.42q.4-1.45.77-2.92a.68.68,0,0,1,.75-.61c1,0,2-.17,3.13-.26l-2.77,9.47c-.42,1.44-.86,2.87-1.26,4.31-.11.39-.25.63-.72.64-.73,0-1.47.14-2.2.24a.69.69,0,0,1-.8-.45q-3.16-6.17-6.36-12.32c-.2-.39-.26-.58.31-.6.86,0,1.72-.15,2.57-.27a.8.8,0,0,1,1,.56C71.9,116,73.33,118.79,74.6,121.86Z" transform="translate(-0.05 -0.04)"/><path class="cls-1" d="M65.71,119.64c0,2.1,0,4.2,0,6.29,0,.51-.11.7-.65.66-.84-.07-1.68-.06-2.52-.06-.39,0-.55-.09-.54-.54q.11-6.44.15-12.88c0-.39.12-.52.51-.5.86,0,1.73.07,2.59,0,.49,0,.62.14.61.62,0,2.12,0,4.24,0,6.37Z" transform="translate(-0.05 -0.04)"/><path class="cls-1" d="M121.88,93.84c.27.08.35.3.47.48l7,9.93a5,5,0,0,0,.35.48c.27.3.19.49-.12.7-.76.51-1.5,1-2.23,1.57-.25.18-.37.18-.57-.09q-3.77-5.34-7.56-10.66c-.2-.28-.19-.45.1-.65.78-.52,1.53-1.07,2.3-1.61Z" transform="translate(-0.05 -0.04)"/><path class="cls-1" d="M117.87,94.21c-.09-.1-.19-.21-.27-.32-.49-.68-1-1.37-1.46-2-.17-.23-.16-.37.07-.54q1.21-.84,2.41-1.71c.21-.15.32-.11.47.09q.75,1.1,1.53,2.17c.14.19.18.33,0,.48l-2.47,1.76A1.58,1.58,0,0,1,117.87,94.21Z" transform="translate(-0.05 -0.04)"/><path class="cls-1" d="M62.26,110.56c0-.13,0-.28,0-.42,0-.84,0-1.67,0-2.51,0-.28.09-.4.38-.39q1.48,0,3,.06c.26,0,.33.1.32.35q0,1.33-.06,2.66c0,.24-.05.37-.33.36l-3-.05A1.58,1.58,0,0,1,62.26,110.56Z" transform="translate(-0.05 -0.04)"/></g></svg>